<svg width="164" height="164" viewBox="0 0 164 164" fill="none" xmlns="http://www.w3.org/2000/svg">
<path d="M150.333 114.39V31.9117C150.333 23.7117 143.637 17.63 135.505 18.3134H135.095C120.745 19.5434 98.9467 26.855 86.7833 34.5084L85.6217 35.26C83.64 36.49 80.36 36.49 78.3783 35.26L76.67 34.235C64.5067 26.65 42.7767 19.4067 28.4267 18.245C20.295 17.5617 13.6667 23.7117 13.6667 31.8434V114.39C13.6667 120.95 18.9967 127.1 25.5567 127.92L27.5383 128.193C42.3667 130.175 65.2583 137.692 78.3783 144.867L78.6517 145.003C80.4967 146.028 83.435 146.028 85.2117 145.003C98.3317 137.76 121.292 130.175 136.188 128.193L138.443 127.92C145.003 127.1 150.333 120.95 150.333 114.39Z" stroke="#D68C45" stroke-width="10.25" stroke-linecap="round" stroke-linejoin="round"/>
<path opacity="0.4" d="M82 37.5149V140.015" stroke="#D68C45" stroke-width="10.25" stroke-linecap="round" stroke-linejoin="round"/>
<path opacity="0.4" d="M52.9583 58.0149H37.5833" stroke="#D68C45" stroke-width="10.25" stroke-linecap="round" stroke-linejoin="round"/>
<path opacity="0.4" d="M58.0833 78.5149H37.5833" stroke="#D68C45" stroke-width="10.25" stroke-linecap="round" stroke-linejoin="round"/>
</svg>
