<svg width="195" height="202" viewBox="0 0 195 202" fill="none" xmlns="http://www.w3.org/2000/svg">
<path opacity="0.4" d="M116.885 123.565V132.438C116.885 135.778 115.168 138.927 112.21 140.644L104.958 145.033" stroke="#2C6E49" stroke-opacity="0.52" stroke-width="14.3125" stroke-miterlimit="10" stroke-linecap="round" stroke-linejoin="round"/>
<path d="M76.3328 209.917H152.666C191.024 209.917 197.894 194.555 199.897 175.853L207.054 99.5196C209.63 76.2379 202.951 57.25 162.208 57.25H66.7912C26.0482 57.25 19.3691 76.2379 21.9453 99.5196L29.1016 175.853C31.1053 194.555 37.9753 209.917 76.3328 209.917Z" stroke="#2C6E49" stroke-opacity="0.52" stroke-width="14.3125" stroke-miterlimit="10" stroke-linecap="round" stroke-linejoin="round"/>
<path opacity="0.4" d="M76.3333 57.25V49.6167C76.3333 32.728 76.3332 19.0834 106.867 19.0834H122.133C152.667 19.0834 152.667 32.728 152.667 49.6167V57.25" stroke="#2C6E49" stroke-opacity="0.52" stroke-width="14.3125" stroke-miterlimit="10" stroke-linecap="round" stroke-linejoin="round"/>
<g opacity="0.4">
<path d="M114.5 173.66C135.579 173.66 152.667 156.572 152.667 135.494C152.667 114.415 135.579 97.3269 114.5 97.3269C93.421 97.3269 76.3333 114.415 76.3333 135.494C76.3333 156.572 93.421 173.66 114.5 173.66Z" stroke="#2C6E49" stroke-opacity="0.52" stroke-width="14.3125" stroke-miterlimit="10" stroke-linecap="round" stroke-linejoin="round"/>
<path d="M206.575 104.958C190.068 116.981 171.748 125.378 152.76 130.148" stroke="#2C6E49" stroke-opacity="0.52" stroke-width="14.3125" stroke-miterlimit="10" stroke-linecap="round" stroke-linejoin="round"/>
<path d="M24.991 107.53C40.9256 118.408 58.2914 126.136 76.3251 130.526" stroke="#2C6E49" stroke-opacity="0.52" stroke-width="14.3125" stroke-miterlimit="10" stroke-linecap="round" stroke-linejoin="round"/>
</g>
</svg>
