<svg width="246" height="246" viewBox="0 0 246 246" fill="none" xmlns="http://www.w3.org/2000/svg">
<path d="M222.016 107.01L211.971 149.855C203.361 186.858 186.346 201.823 154.366 198.748C149.241 198.338 143.706 197.415 137.761 195.98L120.541 191.88C77.7981 181.733 64.5756 160.618 74.6206 117.773L84.6656 74.8251C86.7156 66.1126 89.1756 58.5276 92.2506 52.2751C104.243 27.4701 124.641 20.8076 158.876 28.9051L175.993 32.9026C218.941 42.9476 232.061 64.1651 222.016 107.01Z" stroke="#2C6E49" stroke-opacity="0.13" stroke-width="15.375" stroke-linecap="round" stroke-linejoin="round"/>
<path opacity="0.4" d="M154.365 198.747C148.01 203.052 140.015 206.64 130.277 209.817L114.082 215.147C73.3897 228.267 51.9672 217.3 38.7447 176.607L25.6247 136.12C12.5047 95.4272 23.3697 73.9022 64.0622 60.7822L80.2572 55.4522C84.4597 54.1197 88.4572 52.9922 92.2497 52.2747C89.1747 58.5272 86.7147 66.1122 84.6647 74.8247L74.6197 117.772C64.5747 160.617 77.7972 181.732 120.54 191.88L137.76 195.98C143.705 197.415 149.24 198.337 154.365 198.747Z" stroke="#2C6E49" stroke-opacity="0.13" stroke-width="15.375" stroke-linecap="round" stroke-linejoin="round"/>
<path opacity="0.4" d="M129.56 87.4329L179.273 100.04" stroke="#2C6E49" stroke-opacity="0.13" stroke-width="15.375" stroke-linecap="round" stroke-linejoin="round"/>
<path opacity="0.4" d="M119.515 127.1L149.24 134.685" stroke="#2C6E49" stroke-opacity="0.13" stroke-width="15.375" stroke-linecap="round" stroke-linejoin="round"/>
</svg>
