<svg width="195" height="200" viewBox="0 0 195 200" fill="none" xmlns="http://www.w3.org/2000/svg">
<path d="M208.477 100.485L199.045 140.718C190.96 175.464 174.982 189.516 144.952 186.629C140.14 186.244 134.942 185.378 129.36 184.03L113.19 180.18C73.0537 170.651 60.6374 150.824 70.0699 110.591L79.5024 70.2625C81.4274 62.0813 83.7374 54.9588 86.6249 49.0875C97.8861 25.795 117.04 19.5388 149.187 27.1425L165.261 30.8963C205.59 40.3288 217.91 60.2525 208.477 100.485Z" stroke="#D68C45" stroke-opacity="0.54" stroke-width="14.375" stroke-linecap="round" stroke-linejoin="round"/>
<path opacity="0.4" d="M144.952 186.629C138.985 190.671 131.477 194.04 122.333 197.024L107.126 202.029C68.9147 214.349 48.7985 204.05 36.3822 165.839L24.0622 127.82C11.7422 89.6085 21.9447 69.396 60.156 57.076L75.3635 52.071C79.3097 50.8198 83.0635 49.761 86.6247 49.0873C83.7372 54.9585 81.4272 62.081 79.5022 70.2623L70.0697 110.591C60.6372 150.824 73.0535 170.651 113.19 180.18L129.36 184.03C134.942 185.377 140.14 186.244 144.952 186.629Z" stroke="#D68C45" stroke-opacity="0.54" stroke-width="14.375" stroke-linecap="round" stroke-linejoin="round"/>
<path opacity="0.4" d="M121.66 82.1014L168.341 93.9402" stroke="#D68C45" stroke-opacity="0.54" stroke-width="14.375" stroke-linecap="round" stroke-linejoin="round"/>
<path opacity="0.4" d="M112.227 119.35L140.14 126.473" stroke="#D68C45" stroke-opacity="0.54" stroke-width="14.375" stroke-linecap="round" stroke-linejoin="round"/>
</svg>
