<svg width="197" height="196" viewBox="0 0 197 196" fill="none" xmlns="http://www.w3.org/2000/svg">
<path d="M62.7313 24.3516L4.78879 62.1779C-13.7875 74.3054 -13.7875 101.448 4.78879 113.575L62.7313 151.402C73.1263 158.235 90.2588 158.235 100.654 151.402L158.308 113.575C176.788 101.448 176.788 74.4016 158.308 62.2741L100.654 24.4479C90.2588 17.5179 73.1263 17.5179 62.7313 24.3516Z" stroke="#2C6E49" stroke-opacity="0.52" stroke-width="14.375" stroke-linecap="round" stroke-linejoin="round"/>
<path opacity="0.4" d="M20.1887 125.895L20.0925 171.036C20.0925 183.26 29.525 196.35 41.075 200.2L71.7787 210.402C77.0725 212.135 85.8312 212.135 91.2212 210.402L121.925 200.2C133.475 196.35 142.907 183.26 142.907 171.036V126.376" stroke="#2C6E49" stroke-opacity="0.52" stroke-width="14.375" stroke-linecap="round" stroke-linejoin="round"/>
<path opacity="0.4" d="M171.975 144.375V86.625" stroke="#2C6E49" stroke-opacity="0.52" stroke-width="14.375" stroke-linecap="round" stroke-linejoin="round"/>
</svg>
